<svg xmlns="http://www.w3.org/2000/svg" width="64" height="64" viewBox="0 0 64 64" fill="none">
  <rect width="64" height="64" rx="12" fill="#1F93FF"/>
  <path d="M48 16H44V12H40V16H24V12H20V16H16C13.8 16 12 17.8 12 20V48C12 50.2 13.8 52 16 52H48C50.2 52 52 50.2 52 48V20C52 17.8 50.2 16 48 16ZM48 48H16V28H48V48ZM48 24H16V20H48V24Z" fill="white"/>
  <rect x="20" y="32" width="8" height="8" rx="1" fill="white"/>
  <rect x="36" y="32" width="8" height="8" rx="1" fill="white"/>
  <rect x="20" y="44" width="8" height="8" rx="1" fill="white"/>
  <rect x="36" y="44" width="8" height="8" rx="1" fill="white"/>
</svg> 