<svg xmlns="http://www.w3.org/2000/svg" width="64" height="64" viewBox="0 0 64 64" fill="none">
  <rect width="64" height="64" rx="12" fill="#1F93FF"/>
  <path d="M46 16H44V14C44 13.4696 43.7893 12.9609 43.4142 12.5858C43.0391 12.2107 42.5304 12 42 12C41.4696 12 40.9609 12.2107 40.5858 12.5858C40.2107 12.9609 40 13.4696 40 14V16H24V14C24 13.4696 23.7893 12.9609 23.4142 12.5858C23.0391 12.2107 22.5304 12 22 12C21.4696 12 20.9609 12.2107 20.5858 12.5858C20.2107 12.9609 20 13.4696 20 14V16H18C16.4087 16 14.8826 16.6321 13.7574 17.7574C12.6321 18.8826 12 20.4087 12 22V46C12 47.5913 12.6321 49.1174 13.7574 50.2426C14.8826 51.3679 16.4087 52 18 52H46C47.5913 52 49.1174 51.3679 50.2426 50.2426C51.3679 49.1174 52 47.5913 52 46V22C52 20.4087 51.3679 18.8826 50.2426 17.7574C49.1174 16.6321 47.5913 16 46 16ZM48 46C48 46.5304 47.7893 47.0391 47.4142 47.4142C47.0391 47.7893 46.5304 48 46 48H18C17.4696 48 16.9609 47.7893 16.5858 47.4142C16.2107 47.0391 16 46.5304 16 46V30H48V46ZM48 26H16V22C16 21.4696 16.2107 20.9609 16.5858 20.5858C16.9609 20.2107 17.4696 20 18 20H20V22C20 22.5304 20.2107 23.0391 20.5858 23.4142C20.9609 23.7893 21.4696 24 22 24C22.5304 24 23.0391 23.7893 23.4142 23.4142C23.7893 23.0391 24 22.5304 24 22V20H40V22C40 22.5304 40.2107 23.0391 40.5858 23.4142C40.9609 23.7893 41.4696 24 42 24C42.5304 24 43.0391 23.7893 43.4142 23.4142C43.7893 23.0391 44 22.5304 44 22V20H46C46.5304 20 47.0391 20.2107 47.4142 20.5858C47.7893 20.9609 48 21.4696 48 22V26Z" fill="white"/>
  <circle cx="32" cy="38" r="4" fill="white"/>
</svg> 